<svg width="56" height="96" viewBox="0 0 56 96" fill="none" xmlns="http://www.w3.org/2000/svg">
<g clip-path="url(#clip0_53_2)">
<path fill-rule="evenodd" clip-rule="evenodd" d="M0.419978 92.0701C0.469978 91.8801 0.519978 91.6901 0.569978 91.5101C0.549978 91.5001 0.519978 91.4901 0.499978 91.4901C0.599978 91.1901 0.699978 90.8901 0.809978 90.5901C0.829978 90.5901 0.859978 90.5901 0.879978 90.6001C0.939978 90.4601 0.849978 90.4401 0.849978 90.4401C0.909978 90.2001 0.969978 89.9701 1.03998 89.7301C1.01998 89.7301 0.989978 89.7301 0.969978 89.7101C1.00998 89.5501 1.05998 89.3801 1.09998 89.2101C1.22998 89.0001 1.54998 88.1701 1.54998 87.8201C1.51998 87.8201 1.49998 87.8201 1.47998 87.8001C1.55998 87.5101 1.62998 87.2401 1.69998 86.9501C1.72998 86.9501 1.74998 86.9501 1.76998 86.9701C1.82998 86.7401 1.88998 86.5001 1.95998 86.2601C1.97998 86.2601 1.99998 86.2701 2.02998 86.2801C2.08998 86.1401 2.14998 86.0101 2.20998 85.8701C2.17998 85.8701 2.15998 85.8601 2.13998 85.8501C2.24998 85.4301 2.35998 85.0101 2.47998 84.5801C2.49998 84.5801 2.51998 84.5901 2.54998 84.6001C2.56998 84.5301 2.58998 84.4601 2.60998 84.3901C2.62998 84.3901 2.65998 84.4001 2.67998 84.4101C2.80998 83.8101 2.94998 83.2201 3.06998 82.6301C3.08998 82.6301 3.10998 82.6301 3.13998 82.6501C3.15998 82.4501 3.18998 82.2601 3.20998 82.0601C3.22998 82.0701 3.25998 82.0801 3.27998 82.0801C3.28998 82.0301 3.30998 81.9901 3.31998 81.9401C3.36998 81.9401 3.42998 81.9201 3.47998 81.9101C3.62998 81.7001 3.38998 81.4901 3.39998 81.3601C3.39998 81.2301 3.70998 80.9301 3.75998 80.8501C3.86998 80.4501 3.96998 80.0501 4.07998 79.6501C4.09998 79.6501 4.12998 79.6501 4.14998 79.6701C4.18998 79.5701 4.08998 79.6901 4.09998 79.5801C4.13998 79.4101 4.18998 79.2501 4.22998 79.0901C4.25998 79.0901 4.27998 79.0901 4.29998 79.1101C4.31998 79.0401 4.33998 78.9701 4.35998 78.9001C4.37998 78.9001 4.39998 78.9101 4.42998 78.9201C4.55998 78.7101 4.62998 78.0801 4.61998 77.9201C4.58998 77.9201 4.56998 77.9101 4.54998 77.9001C4.62998 77.5901 4.70998 77.2901 4.78998 76.9901C4.76998 76.9901 4.73998 76.9701 4.71998 76.9701C4.75998 76.8301 4.79998 76.6901 4.83998 76.5401C4.81998 76.5401 4.78998 76.5301 4.76998 76.5201C4.88998 76.1501 5.01998 75.7801 5.13998 75.4101C5.11998 75.4101 5.08998 75.4001 5.06998 75.3901C5.08998 75.3001 5.11998 75.2101 5.13998 75.1101C5.10998 75.1101 5.08998 75.1101 5.06998 75.0901C5.09998 74.9701 5.12998 74.8501 5.15998 74.7301C5.13998 74.7301 5.10998 74.7201 5.08998 74.7101C5.20998 74.3401 5.32998 73.9701 5.44998 73.6001C5.51998 73.3401 5.58998 73.0801 5.65998 72.8201C5.65998 72.8201 5.55998 72.7301 5.63998 72.5901C5.66998 72.5901 5.68998 72.5901 5.70998 72.6101C5.71998 72.5601 5.73998 72.5201 5.74998 72.4701C5.76998 72.4701 5.79998 72.4901 5.81998 72.4901C5.81998 72.3701 5.83998 72.2401 5.83998 72.1201C5.90998 71.8401 5.98998 71.5501 6.05998 71.2701C6.05998 71.2701 6.17998 71.2401 6.17998 71.0701C6.15998 71.0701 6.12998 71.0701 6.10998 71.0501C6.25998 70.3901 6.40998 69.7201 6.55998 69.0601C6.65998 68.8101 6.74998 68.5601 6.83998 68.3001C6.80998 68.3001 6.78998 68.2901 6.76998 68.2801C6.75998 68.0001 6.90998 67.7201 6.94998 67.5801C7.05998 67.1601 7.17998 66.7301 7.27998 66.3101C7.28998 66.2901 7.29998 66.2701 7.29998 66.2401C7.31998 66.2401 7.33998 66.2401 7.36998 66.2601C7.40998 66.1001 7.45998 65.9301 7.49998 65.7601C7.47998 65.7601 7.44998 65.7601 7.42998 65.7501C7.51998 65.4001 7.61998 65.0401 7.70998 64.6901C7.72998 64.6901 7.74998 64.7001 7.77998 64.7101C7.85998 64.4101 7.93998 64.1001 8.01998 63.7901C8.04998 63.7901 8.06998 63.8001 8.08998 63.8101C8.11998 63.6901 8.14998 63.5801 8.17998 63.4601C8.15998 63.4601 8.13998 63.4501 8.11998 63.4401C8.14998 63.3201 8.17998 63.2101 8.20998 63.0801C8.22998 63.0801 8.24998 63.0901 8.27998 63.1001C8.30998 62.9801 8.33998 62.8701 8.36998 62.7501C8.34998 62.7501 8.31998 62.7301 8.29998 62.7301C8.36998 62.4501 8.44998 62.1701 8.51998 61.8801C8.53998 61.8801 8.56998 61.8901 8.58998 61.9001C8.62998 61.7601 8.66998 61.6201 8.69998 61.4801C8.67998 61.4801 8.64998 61.4601 8.62998 61.4601C8.69998 61.2001 8.75998 60.9401 8.83998 60.6801C8.81998 60.6801 8.79998 60.6701 8.76998 60.6601C8.84998 60.3501 8.92998 60.0501 9.00998 59.7401C8.98998 59.7401 8.95998 59.7301 8.93998 59.7201C8.99998 59.5601 9.06998 59.4001 9.13998 59.2501C9.11998 59.2501 9.08998 59.2401 9.06998 59.2301C9.14998 58.9501 9.21998 58.6601 9.28998 58.3801C9.28998 58.3601 9.38998 58.3801 9.39998 58.2601C9.36998 58.2601 9.35998 58.2501 9.32998 58.2401C9.36998 58.0801 9.41998 57.9101 9.45998 57.7401C9.47998 57.7401 9.49998 57.7501 9.52998 57.7601C9.52998 57.7301 9.53998 57.7101 9.54998 57.6901C9.65998 57.2701 11.24 51.2701 11.27 51.1701C11.25 51.1701 11.22 51.1501 11.2 51.1501C11.24 50.9801 11.29 50.8201 11.34 50.6601C11.31 50.6601 11.29 50.6501 11.27 50.6401C11.27 50.5401 11.27 50.4401 11.27 50.3401C11.25 50.3401 11.23 50.3301 11.2 50.3201C11.26 50.1301 11.31 49.9501 11.36 49.7601C11.34 49.7601 11.31 49.7501 11.29 49.7401C11.32 49.6501 11.34 49.5501 11.37 49.4601C11.42 49.4601 11.48 49.4401 11.53 49.4301C11.6 49.1901 11.66 48.9601 11.73 48.7301C11.85 48.3101 11.97 48.1201 12.13 47.8601C12.34 47.5301 12.41 46.6101 12.42 46.3401C12.57 45.9001 12.72 45.4701 12.87 45.0301C12.89 44.8801 12.9 44.7301 12.92 44.5901C12.89 44.5901 12.87 44.5801 12.84 44.5701C12.84 44.2601 13.05 44.3101 13.08 44.2601C13.2 44.1101 13.12 43.9101 13.13 43.8201C13.17 43.5801 13.36 43.3601 13.45 43.2301C13.71 42.2401 13.97 41.2501 14.23 40.2601C14.25 40.2601 14.27 40.2701 14.3 40.2801C14.32 40.2101 14.34 40.1401 14.36 40.0701C14.38 40.0701 14.4 40.0901 14.43 40.0901C14.43 40.0101 14.43 39.9401 14.42 39.8601C14.57 39.3701 14.71 38.8801 14.85 38.3901C14.89 38.3301 14.94 38.2601 14.98 38.2001C14.96 38.2001 14.94 38.2001 14.91 38.1801C14.99 37.9001 15.07 37.6201 15.15 37.3401C15.13 37.3401 15.11 37.3201 15.08 37.3201C15.08 37.2001 15.1 37.0701 15.11 36.9501C15.13 36.8501 15.16 36.7601 15.19 36.6701C15.21 36.6701 15.23 36.6901 15.26 36.6901C15.48 36.0201 15.7 35.3501 15.91 34.6701C15.91 34.2501 15.98 33.7101 16.19 33.1601C16.25 33.0001 16.42 32.8701 16.42 32.6201C16.4 32.6201 16.38 32.6101 16.35 32.6001C16.37 32.5301 16.39 32.4601 16.41 32.3901C16.39 32.3901 16.36 32.3701 16.34 32.3701C16.42 32.1701 16.51 31.9601 16.6 31.7601C16.57 31.7601 16.55 31.7501 16.53 31.7401C16.55 31.6701 16.57 31.6001 16.59 31.5301C16.57 31.5201 16.54 31.5201 16.52 31.5101C16.61 31.2101 16.7 30.9001 16.78 30.6001C16.83 30.4401 16.87 30.2701 16.92 30.1101C16.97 30.0201 16.99 30.1601 17.01 30.0601C16.98 30.0501 16.96 30.0401 16.94 30.0401C16.96 29.9401 16.99 29.8501 17.02 29.7601C17 29.7601 16.97 29.7501 16.95 29.7401C16.97 29.6701 16.99 29.6001 17.01 29.5301C16.98 29.5301 16.97 29.5201 16.94 29.5101C17.04 29.1801 17.13 28.8501 17.22 28.5301C17.2 28.5301 17.17 28.5201 17.15 28.5101C17.17 28.4401 17.19 28.3701 17.21 28.3001C17.19 28.3001 17.16 28.2801 17.14 28.2801C17.15 28.1501 17.24 28.1701 17.25 28.1601C17.31 27.9501 17.37 27.7401 17.43 27.5301C17.53 27.3801 17.82 27.2601 17.82 26.9601C17.8 26.9601 17.78 26.9601 17.75 26.9401C17.77 26.8701 17.79 26.8001 17.81 26.7301C17.78 26.7301 17.76 26.7101 17.74 26.7101C17.85 26.3401 17.95 25.9601 18.06 25.5901C18.03 25.5901 18.01 25.5801 17.99 25.5701C18.01 25.5001 18.03 25.4301 18.05 25.3601C18.02 25.3601 18.01 25.3501 17.98 25.3401C17.98 25.1601 18.34 24.7101 18.33 24.3801C18.31 24.3801 18.28 24.3701 18.26 24.3601C18.3 24.2201 18.34 24.0801 18.38 23.9401C18.36 23.9401 18.33 23.9301 18.31 23.9201C18.43 23.4801 18.56 23.0301 18.69 22.5901C18.67 22.5901 18.65 22.5801 18.62 22.5701C18.65 22.4801 18.68 22.3801 18.7 22.2901C18.68 22.2901 18.65 22.2701 18.63 22.2701C18.67 22.1301 18.71 21.9901 18.75 21.8501C18.72 21.8501 18.7 21.8401 18.68 21.8301C18.82 21.4201 18.96 21.0001 19.11 20.5901C19.08 20.5901 19.06 20.5801 19.04 20.5701C19.07 20.3801 19.1 20.1801 19.13 19.9901C19.1 19.9901 19.08 19.9801 19.05 19.9701C19.07 19.9201 19.08 19.8801 19.1 19.8301C19.07 19.8301 19.05 19.8201 19.03 19.8101C19.03 19.5101 19.36 19.6001 19.35 19.2201C19.32 19.2201 19.3 19.2101 19.28 19.2001C19.29 19.1601 19.31 19.1101 19.32 19.0601C19.3 19.0601 19.28 19.0401 19.25 19.0401C19.31 18.8301 19.37 18.6201 19.43 18.4101C19.4 18.4101 19.38 18.4001 19.36 18.3901C19.41 18.2001 19.46 18.0101 19.52 17.8301C19.49 17.8301 19.47 17.8201 19.45 17.8101C19.46 17.6501 19.58 17.6201 19.58 17.6201C19.78 17.0201 19.98 16.4201 20.17 15.8201C20.15 15.8201 20.12 15.8101 20.1 15.8001C20.13 15.7101 20.16 15.6101 20.18 15.5201C20.15 15.5201 20.13 15.5101 20.11 15.5001C20.15 15.3601 20.19 15.2201 20.23 15.0801C20.2 15.0801 20.18 15.0701 20.16 15.0601C20.39 14.3601 20.61 13.6701 20.83 12.9801C20.81 12.9801 20.79 12.9701 20.76 12.9601C20.76 12.9401 20.76 12.9101 20.77 12.8901C20.8 12.8901 20.82 12.9101 20.84 12.9101C20.88 12.7701 20.92 12.6301 20.96 12.4901C20.96 12.2001 20.95 11.9901 21.06 11.6101C21.17 11.2101 21.29 10.8201 21.4 10.4201C21.38 10.4201 21.36 10.4101 21.33 10.4001C21.4 10.1401 21.48 9.89009 21.55 9.63009C21.55 9.63009 21.49 9.61009 21.52 9.47009C21.6 9.21009 21.67 8.96009 21.74 8.70009C21.72 8.70009 21.7 8.68009 21.67 8.68009C21.69 8.61009 21.71 8.54009 21.73 8.47009C21.71 8.47009 21.68 8.45009 21.66 8.45009C21.74 8.27009 21.81 8.09009 21.89 7.91009C21.86 7.91009 21.84 7.90009 21.82 7.89009C21.89 7.66009 21.95 7.42009 22.02 7.19009C21.96 7.15009 21.9 7.10009 21.83 7.06009C21.95 6.56009 22.06 6.07009 22.18 5.57009C22.27 5.34009 22.36 5.11009 22.45 4.89009C22.43 4.89009 22.41 4.88009 22.38 4.87009C22.4 4.80009 22.42 4.73009 22.44 4.66009C22.42 4.66009 22.39 4.65009 22.37 4.64009C22.45 4.46009 22.52 4.28009 22.6 4.10009C22.57 4.10009 22.55 4.09009 22.52 4.08009C22.54 4.03009 22.55 3.99009 22.56 3.94009C22.52 3.90009 22.48 3.87009 22.44 3.83009C22.48 3.61009 22.52 3.40009 22.55 3.18009C22.55 2.99009 22.49 2.56009 22.65 2.30009C22.67 2.30009 22.69 2.31009 22.72 2.32009C22.76 2.15009 22.81 1.99009 22.86 1.83009C22.91 1.83009 22.97 1.81009 23.02 1.80009C23.03 1.76009 23.05 1.71009 23.06 1.66009C23.08 1.66009 23.1 1.68009 23.13 1.68009C23.18 1.57009 23.25 1.46009 23.3 1.35009C23.55 1.37009 23.69 1.30009 23.87 1.21009C23.91 1.17009 23.94 1.13009 23.98 1.09009C24.14 1.13009 24.3 1.18009 24.47 1.23009C24.74 1.28009 25 1.33009 25.26 1.38009C25.26 1.40009 25.25 1.43009 25.24 1.45009C25.37 1.53009 25.5 1.42009 25.54 1.46009C25.54 1.48009 25.53 1.51009 25.52 1.53009C25.57 1.54009 25.61 1.56009 25.66 1.57009C25.79 1.83009 25.91 2.10009 26.04 2.36009C26.1 2.43009 26.16 2.49009 26.21 2.56009C26.2 2.61009 26.18 2.65009 26.17 2.70009C26.19 2.71009 26.22 2.71009 26.24 2.72009C26.29 2.90009 26.18 2.81009 26.32 2.97009C26.2 3.41009 26.01 3.97009 26.01 4.33009C25.93 4.58009 25.86 4.85009 25.79 5.10009C25.77 5.10009 25.74 5.09009 25.72 5.08009C25.65 5.31009 25.59 5.55009 25.52 5.78009C25.54 5.78009 25.56 5.80009 25.59 5.80009C25.59 5.96009 25.46 5.99009 25.46 5.99009C25.35 6.37009 25.25 6.74009 25.14 7.12009C25.12 7.12009 25.09 7.11009 25.07 7.10009C25.02 7.36009 24.97 7.63009 24.92 7.89009C24.94 7.89009 24.96 7.90009 24.99 7.91009C24.93 8.12009 24.87 8.33009 24.81 8.54009C24.83 8.54009 24.86 8.55009 24.88 8.56009C24.84 8.70009 24.8 8.84009 24.76 8.98009C24.78 8.98009 24.81 8.99009 24.83 9.00009C24.83 9.34009 24.28 10.9501 24.14 11.1501C24.11 11.1501 24.09 11.1401 24.07 11.1301C24.05 11.2001 24.03 11.2701 24.01 11.3401C23.99 11.3401 23.96 11.3201 23.94 11.3201C23.75 11.6201 23.95 11.8301 23.97 12.0101C23.84 12.5301 23.72 13.0501 23.6 13.5701C23.62 13.5701 23.64 13.5801 23.66 13.5901C23.65 13.6301 23.64 13.6801 23.62 13.7301C23.64 13.7301 23.66 13.7401 23.69 13.7501C23.67 13.8201 23.65 13.8901 23.63 13.9601C23.66 13.9601 23.68 13.9701 23.7 13.9801C23.67 14.0701 23.64 14.1701 23.62 14.2601C23.6 14.2601 23.57 14.2501 23.55 14.2401C23.49 14.5501 23.42 14.8601 23.36 15.1701C23.26 15.4201 23.16 15.6701 23.07 15.9201C23.1 15.9201 23.12 15.9401 23.14 15.9401C23.07 16.2001 22.99 16.4501 22.92 16.7101C22.94 16.7101 22.96 16.7201 22.99 16.7301C22.94 16.8901 22.89 17.0601 22.85 17.2201C22.87 17.2201 22.9 17.2301 22.92 17.2401C22.91 17.2801 22.89 17.3301 22.88 17.3801C22.9 17.3801 22.93 17.3901 22.95 17.4001C22.92 17.4901 22.89 17.5901 22.87 17.6801C22.89 17.6801 22.91 17.6901 22.94 17.7001C22.81 18.1401 22.69 18.5901 22.56 19.0301C22.59 19.0301 22.61 19.0401 22.63 19.0501C22.6 19.1401 22.58 19.2401 22.55 19.3301C22.57 19.3301 22.6 19.3501 22.62 19.3501C22.59 19.4701 22.55 19.5801 22.52 19.7001C22.54 19.7001 22.56 19.7101 22.59 19.7201C22.55 19.8901 22.5 20.0501 22.45 20.2101C22.48 20.2101 22.5 20.2201 22.52 20.2301C22.44 20.4901 22.37 20.7501 22.3 21.0001C22.32 21.0001 22.34 21.0101 22.37 21.0201C22.35 21.0901 22.33 21.1601 22.31 21.2301C22.33 21.2301 22.36 21.2401 22.38 21.2501C22.22 21.7101 22.06 22.1701 21.91 22.6301C21.91 22.8401 21.95 23.3701 21.77 23.6501C21.75 23.6501 21.73 23.6401 21.7 23.6301C21.62 23.9101 21.54 24.1901 21.46 24.4701C21.48 24.4701 21.51 24.4801 21.53 24.4901C21.53 24.5101 21.52 24.5401 21.51 24.5601C21.4 24.6601 21.22 25.0701 21.22 25.3101C21.24 25.3101 21.26 25.3301 21.29 25.3301C21.25 25.4501 21.22 25.5601 21.19 25.6801C21.21 25.6801 21.23 25.6901 21.26 25.7001C21.26 25.7201 21.26 25.7501 21.24 25.7701C21.22 25.7701 21.19 25.7501 21.17 25.7501C21.13 25.9201 21.08 26.0801 21.03 26.2401C21.05 26.2401 21.07 26.2601 21.1 26.2601C21.07 26.3801 21.03 26.4901 21 26.6101C21.02 26.6101 21.04 26.6201 21.07 26.6301C20.93 26.9201 20.8 27.2101 20.66 27.5001C20.69 27.5001 20.71 27.5201 20.73 27.5201C20.67 27.7101 20.62 27.9001 20.57 28.0801C20.57 28.0801 20.45 28.1001 20.44 28.2701C20.46 28.2701 20.49 28.2801 20.51 28.2901C20.44 28.5401 20.36 28.8001 20.29 29.0601C20.23 29.2701 20.17 29.4801 20.1 29.6901C20.13 29.6901 20.15 29.7001 20.17 29.7101C20.05 30.1301 19.93 30.5501 19.81 30.9701C19.84 30.9701 19.85 30.9801 19.88 30.9901C19.85 31.1001 19.82 31.2201 19.78 31.3401C19.63 31.5801 19.25 32.5401 19.24 32.9301C19.27 32.9301 19.29 32.9401 19.31 32.9501C19.28 33.0401 19.26 33.1401 19.23 33.2301C19.21 33.2301 19.19 33.2201 19.16 33.2101C19.16 33.2401 19.15 33.2601 19.14 33.2801C19.16 33.2801 19.19 33.2901 19.21 33.3001C19.13 33.5601 19.06 33.8101 18.99 34.0701C19.01 34.0701 19.04 34.0901 19.06 34.0901C18.98 34.3701 18.89 34.6501 18.82 34.9301C18.61 35.2701 18.57 35.9601 18.33 36.3801C18.33 36.3801 18.21 36.4101 18.2 36.5701C18.22 36.5701 18.25 36.5901 18.27 36.6001C18.21 36.8101 18.15 37.0201 18.08 37.2301C18.11 37.2301 18.13 37.2401 18.15 37.2501C17.99 37.7101 17.83 38.1701 17.68 38.6301C17.7 38.6301 17.72 38.6401 17.75 38.6501C17.67 38.9301 17.59 39.2101 17.51 39.4901C17.51 39.4901 17.39 39.5201 17.38 39.6901C17.4 39.6901 17.43 39.7001 17.45 39.7101C17.35 39.9601 17.26 40.2101 17.16 40.4601C17.19 40.4601 17.21 40.4701 17.23 40.4801C17.23 40.6301 17.1 40.6701 17.1 40.6701C17.05 40.9301 17 41.2001 16.95 41.4601C16.93 41.4601 16.91 41.4501 16.88 41.4401C16.85 41.5601 16.81 41.6701 16.78 41.7901C16.76 41.7901 16.73 41.7801 16.71 41.7701C16.51 42.5001 16.29 43.2201 16.09 43.9401C16.11 43.9401 16.14 43.9501 16.16 43.9601C16.11 44.1501 16.05 44.3401 16 44.5201C15.98 44.5201 15.96 44.5101 15.93 44.5001C15.89 44.7401 15.85 44.9801 15.8 45.2201C15.72 45.4601 15.42 46.1801 15.42 46.5501C15.44 46.5501 15.47 46.5601 15.49 46.5701C15.4 46.8201 15.3 47.0701 15.2 47.3201C15.22 47.3201 15.24 47.3301 15.27 47.3401C15.11 47.8201 14.94 48.3101 14.78 48.7901C14.76 48.7901 14.73 48.7801 14.71 48.7701C14.71 48.7901 14.7 48.8201 14.69 48.8401C14.71 48.8401 14.73 48.8501 14.76 48.8601C14.72 49.0001 14.68 49.1401 14.64 49.2801C14.67 49.2801 14.69 49.3001 14.71 49.3001C14.59 49.7201 14.47 50.1401 14.35 50.5601C14.37 50.5601 14.39 50.5701 14.42 50.5801C14.31 50.8801 14.2 51.1801 14.09 51.4801C14.01 51.8401 13.07 55.1301 12.88 55.6901C12.8 56.0001 12.78 56.3201 12.78 56.5701C12.76 56.6401 12.74 56.7201 12.71 56.8001C12.66 56.7801 12.6 56.7601 12.54 56.7401C12.52 56.8001 12.51 56.8601 12.49 56.9201C12.51 56.9201 12.54 56.9301 12.56 56.9401C12.45 57.2401 12.35 57.5401 12.25 57.8401C12.28 57.8401 12.3 57.8501 12.32 57.8601C12.25 58.1401 12.17 58.4201 12.1 58.7101C12.08 58.7101 12.05 58.7001 12.03 58.6901C11.96 59.0501 11.89 59.4101 11.82 59.7701C11.71 60.1901 11.6 60.6201 11.49 61.0401C11.51 61.0401 11.54 61.0501 11.56 61.0601C11.56 61.1001 11.54 61.1501 11.52 61.2001C11.54 61.2001 11.57 61.2101 11.59 61.2201C11.59 61.4501 11.32 61.5501 11.3 61.7501C11.32 61.7501 11.34 61.7501 11.37 61.7701C11.33 61.8901 11.31 62.0101 11.28 62.1301C11.31 62.1301 11.33 62.1401 11.35 62.1501C11.34 62.2001 11.32 62.2401 11.31 62.2901C11.34 62.2901 11.36 62.3001 11.38 62.3101C11.31 62.4901 11.24 62.6701 11.17 62.8501C11.16 62.9501 11.26 62.8501 11.22 62.9401C11.2 62.9401 11.17 62.9301 11.15 62.9201C11.13 62.9901 11.11 63.0601 11.1 63.1301C11.08 63.1301 11.05 63.1201 11.03 63.1101C10.97 63.5201 10.91 63.9401 10.85 64.3401C10.6 65.3901 10.17 66.6001 10.18 67.4801C10.06 67.8501 9.93998 68.2201 9.80998 68.6001C9.70998 69.0801 9.60998 69.5501 9.50998 70.0301C9.54998 70.0701 9.58998 70.1001 9.62998 70.1401C9.59998 70.2401 9.57998 70.3301 9.54998 70.4201C9.52998 70.4201 9.49998 70.4101 9.47998 70.4001C9.40998 70.6901 9.32998 70.9701 9.25998 71.2501C9.07998 71.9301 8.77998 72.7901 8.76998 73.3901C8.68998 73.6201 8.59998 73.8501 8.51998 74.0801C8.49998 74.2701 8.49998 74.6601 8.36998 74.9401C8.33998 74.9401 8.31998 74.9301 8.29998 74.9201C8.29998 74.9401 8.27998 74.9701 8.27998 74.9901C8.30998 74.9901 8.32998 75.0001 8.34998 75.0101C8.32998 75.0801 8.30998 75.1501 8.29998 75.2201C8.31998 75.2201 8.33998 75.2301 8.36998 75.2401C8.22998 75.7901 8.08998 76.3301 7.93998 76.8701C7.91998 76.9401 7.89998 77.0101 7.88998 77.0801C7.90998 77.0801 7.93998 77.1001 7.95998 77.1001C7.88998 77.3801 7.80998 77.6601 7.73998 77.9501C7.75998 77.9501 7.77998 77.9501 7.80998 77.9701C7.77998 78.0701 7.75998 78.1601 7.73998 78.2601C7.75998 78.2601 7.77998 78.2701 7.80998 78.2801C7.77998 78.5601 7.43998 78.7101 7.44998 79.0901C7.47998 79.0901 7.49998 79.0901 7.51998 79.1101C7.49998 79.1801 7.47998 79.2501 7.45998 79.3201C7.48998 79.3201 7.49998 79.3301 7.52998 79.3401C7.52998 79.5301 7.35998 79.6801 7.33998 79.7401C7.35998 79.7401 7.38998 79.7501 7.40998 79.7601C7.37998 79.8801 7.34998 79.9901 7.31998 80.1101C7.34998 80.1101 7.36998 80.1101 7.38998 80.1301C7.32998 80.2601 7.26998 80.4001 7.20998 80.5401C7.17998 80.7001 7.21998 81.0901 7.07998 81.3301C7.05998 81.3301 7.03998 81.3101 7.00998 81.3101C6.90998 81.6801 6.80998 82.0601 6.70998 82.4401C6.70998 82.4401 6.79998 82.5301 6.72998 82.6701C6.69998 82.6701 6.67998 82.6601 6.65998 82.6501C6.61998 82.8401 6.55998 83.0201 6.51998 83.2101C6.53998 83.2101 6.55998 83.2201 6.58998 83.2301C6.58998 83.4401 6.34998 83.7101 6.27998 83.8301C6.14998 84.0401 6.15998 84.4301 6.15998 84.5601C6.15998 84.9401 5.79998 85.6801 5.77998 85.7401C5.75998 85.9101 5.73998 86.0801 5.71998 86.2501C5.74998 86.2501 5.76998 86.2501 5.78998 86.2701C5.78998 86.3901 5.68998 86.3801 5.67998 86.3901C5.62998 86.5101 5.70998 86.5301 5.70998 86.5601C5.62998 86.8601 5.54998 87.1701 5.46998 87.4701C5.36998 87.8501 5.21998 88.1601 5.13998 88.4401C5.10998 88.5601 5.07998 88.6801 5.04998 88.7901C5.07998 88.7901 5.09998 88.8101 5.11998 88.8101C5.11998 88.8301 5.09998 88.8601 5.09998 88.8801C5.07998 88.8801 5.05998 88.8801 5.02998 88.8601C4.99998 88.9801 4.96998 89.0901 4.93998 89.2101C4.90998 89.2101 4.88998 89.2001 4.86998 89.1901C4.86998 89.2101 4.85998 89.2401 4.84998 89.2601C4.87998 89.2601 4.89998 89.2701 4.91998 89.2801C4.85998 89.6201 4.79998 89.9501 4.72998 90.2901C4.64998 90.3201 4.55998 90.3401 4.47998 90.3801C4.47998 90.4801 4.47998 90.5801 4.47998 90.6801C4.50998 90.6801 4.52998 90.6901 4.54998 90.7001C4.47998 90.9601 4.40998 91.2201 4.33998 91.4801C4.31998 91.4801 4.29998 91.4601 4.26998 91.4601C4.21998 91.7301 4.17998 91.9901 4.13998 92.2501C4.11998 92.2501 4.09998 92.2401 4.06998 92.2301C4.02998 92.4501 4.00998 92.6601 3.96998 92.8801C3.54998 93.7001 3.68998 95.1201 2.81998 95.5201C2.73998 95.5601 2.13998 95.4901 2.00998 95.4601C1.96998 95.5201 1.91998 95.5901 1.87998 95.6501C1.62998 95.6001 1.51998 95.5901 1.34998 95.6501C1.30998 95.6901 1.27998 95.7301 1.23998 95.7701C1.14998 95.7501 1.04998 95.7201 0.949978 95.7001C0.949978 95.5801 0.959978 95.4501 0.969978 95.3301C0.379978 95.0401 0.299978 94.6001 0.169978 94.0601C0.169978 93.9601 0.169978 93.8601 0.169978 93.7601C0.109978 93.6901 0.0499777 93.6301 -0.0100223 93.5601C-2.22698e-05 93.5101 0.0199777 93.4701 0.0299777 93.4201C0.00997772 93.4201 -0.0100223 93.4101 -0.0400223 93.4001C-0.0700223 93.0801 0.299978 92.2701 0.379978 92.0801L0.419978 92.0701Z" fill="#B9A560"/>
<path fill-rule="evenodd" clip-rule="evenodd" d="M45.37 56.21C45.48 55.79 45.59 55.36 45.71 54.94C45.69 54.94 45.67 54.93 45.64 54.92C45.7 54.69 45.77 54.45 45.83 54.22C45.81 54.22 45.78 54.21 45.76 54.2C45.78 54.13 45.8 54.06 45.82 53.99C45.79 53.99 45.77 53.98 45.74 53.97C45.79 53.78 45.84 53.59 45.89 53.41C45.87 53.41 45.85 53.4 45.82 53.39C45.83 53.27 45.92 53.29 45.93 53.27C46.08 52.7 46.23 52.14 46.38 51.57C46.36 51.57 46.33 51.56 46.31 51.56C46.36 51.47 46.41 51.38 46.45 51.3C46.43 51.3 46.4 51.29 46.38 51.28C46.43 51.12 46.47 50.95 46.51 50.79C46.48 50.79 46.47 50.78 46.44 50.77C46.49 50.58 46.54 50.39 46.59 50.2C46.56 50.2 46.54 50.19 46.52 50.18C46.58 50.02 46.65 49.86 46.72 49.7C46.69 49.7 46.67 49.69 46.65 49.68C46.65 49.34 46.88 49.16 46.98 49.01C47.24 48.12 47.5 47.24 47.76 46.35C47.73 46.35 47.71 46.34 47.69 46.33C47.69 46.28 47.71 46.23 47.73 46.19C47.7 46.19 47.68 46.18 47.66 46.17C47.68 46.1 47.7 46.03 47.72 45.96C47.69 45.96 47.67 45.95 47.65 45.95C47.72 45.79 47.78 45.63 47.85 45.47C47.83 45.47 47.8 45.46 47.78 45.45C47.78 45.06 48.05 44.69 48.13 44.41C48.16 44.31 48.18 44.22 48.21 44.13C48.18 44.13 48.16 44.12 48.14 44.11C48.23 43.78 48.31 43.45 48.4 43.12C48.37 43.12 48.35 43.11 48.33 43.1C48.33 42.98 48.43 42.99 48.44 42.98C48.51 42.72 48.58 42.46 48.64 42.2C48.62 42.2 48.59 42.2 48.57 42.18C48.69 41.83 48.8 41.49 48.92 41.14C48.88 41.11 48.83 41.07 48.8 41.04C48.86 40.83 48.91 40.62 48.97 40.4C49 40.4 49.02 40.41 49.04 40.42C49.05 40.37 49.06 40.33 49.08 40.28C49.11 40.28 49.13 40.29 49.15 40.3C49.18 40.2 49.2 40.11 49.22 40.02C49.2 40.02 49.18 40.01 49.15 40C49.23 39.67 49.33 39.34 49.41 39.01C49.38 39.01 49.36 39 49.34 38.99C49.38 38.85 49.42 38.71 49.45 38.57C49.43 38.57 49.4 38.56 49.38 38.55C49.46 38.25 49.54 37.94 49.62 37.63C49.6 37.63 49.57 37.62 49.55 37.62C49.63 37.41 49.71 37.21 49.79 37C49.76 37 49.74 36.99 49.72 36.98C49.73 36.91 49.76 36.84 49.77 36.77C49.74 36.77 49.72 36.76 49.7 36.75C49.74 36.69 49.79 36.62 49.82 36.56C49.89 36.38 49.81 36.33 49.81 36.33C49.81 36.02 50.09 35.62 50.19 35.45C50.38 34.74 50.57 34.04 50.75 33.33C50.73 33.33 50.71 33.32 50.68 33.31C50.7 33.2 50.93 32.93 50.92 32.69C50.89 32.69 50.87 32.69 50.85 32.67C50.89 32.55 50.91 32.44 50.94 32.32C50.92 32.32 50.9 32.31 50.87 32.3C50.85 31.95 51.14 31.28 51.15 30.94C51.15 30.78 51.28 30.75 51.28 30.75C51.33 30.46 51.38 30.17 51.43 29.88C51.45 29.88 51.48 29.89 51.5 29.9C51.51 29.86 51.53 29.81 51.54 29.76C51.59 29.75 51.65 29.74 51.7 29.73C51.73 29.61 51.76 29.49 51.79 29.38C51.76 29.38 51.75 29.37 51.72 29.36C51.77 29.25 51.83 29.13 51.88 29.02C51.86 29.02 51.83 29.01 51.81 29C51.87 28.77 51.93 28.53 52 28.29C52.03 28.2 52.05 28.1 52.08 28.01C52.06 28.01 52.03 28 52.01 27.99C52.09 27.69 52.17 27.38 52.26 27.08C52.23 27.08 52.21 27.07 52.19 27.06C52.29 26.71 52.38 26.35 52.47 26C52.44 26 52.42 25.99 52.4 25.98C52.48 25.67 52.56 25.37 52.64 25.06C52.62 25.06 52.59 25.06 52.57 25.04C52.62 24.85 52.67 24.67 52.72 24.48C52.7 24.48 52.67 24.47 52.65 24.46C52.66 24.42 52.68 24.37 52.69 24.32C52.67 24.32 52.64 24.31 52.62 24.3C52.64 24.23 52.66 24.16 52.67 24.09C52.64 24.09 52.62 24.08 52.6 24.07C52.6 23.94 52.7 23.96 52.71 23.94C52.8 23.51 52.89 23.09 52.98 22.66C52.95 22.66 52.93 22.65 52.91 22.64C52.93 22.57 52.95 22.5 52.97 22.43C52.95 22.43 52.92 22.42 52.9 22.41C52.92 22.31 52.95 22.22 52.97 22.13C52.95 22.13 52.93 22.13 52.9 22.11C52.97 21.85 53.04 21.59 53.1 21.33C53.08 21.33 53.06 21.32 53.03 21.32C53.12 20.97 53.21 20.61 53.31 20.26C53.29 19.5 53.68 18.38 54.06 17.73C54.35 17.25 54.28 16.42 54.51 16.04C54.57 15.7 54.63 15.37 54.7 15.04C54.73 15.04 54.75 15.04 54.77 15.05C54.81 14.89 54.86 14.72 54.9 14.56C54.87 14.56 54.85 14.55 54.83 14.54C54.83 14.52 54.84 14.49 54.85 14.47C54.93 14.24 55.02 14.01 55.1 13.78C55.08 13.78 55.05 13.77 55.03 13.76C55.04 13.71 55.06 13.66 55.07 13.62C55.05 13.62 55.03 13.61 55 13.6C55.06 13.39 55.11 13.18 55.17 12.97C55.15 12.97 55.12 12.96 55.1 12.95C55.09 12.57 55.48 11.52 55.62 11.27C55.72 11.11 55.65 10.86 55.66 10.83C55.68 10.83 56.16 8.84997 55.97 8.79997C55.97 8.77997 55.98 8.75997 55.99 8.72997C55.7 8.68997 55.41 8.63997 55.12 8.59997C55.12 8.57997 55.13 8.54997 55.14 8.52997C54.93 8.47997 54.71 8.42997 54.5 8.37997C54.5 8.35997 54.51 8.32997 54.52 8.30997C54.42 8.28997 54.33 8.26997 54.24 8.23997C54.24 8.21997 54.24 8.18997 54.26 8.16997C53.99 8.12997 53.73 8.08997 53.46 8.04997C53.11 7.86997 52.34 7.82997 51.99 7.62997C51.99 7.60997 52 7.57997 52.01 7.55997C51.91 7.53997 51.82 7.51997 51.73 7.48997C51.73 7.46997 51.74 7.43997 51.75 7.41997C51.39 7.34997 51.04 7.27997 50.68 7.20997C50.47 7.14997 50.26 7.07997 50.04 7.01997C50.02 7.01997 50.01 7.01997 50 7.00997C49.74 6.92997 49.48 6.84997 49.21 6.76997C49.21 6.78997 49.21 6.79997 49.21 6.81997C49.2 6.75997 49.17 6.69997 49 6.69997C49 6.71997 48.99 6.74997 48.98 6.76997C48.95 6.76997 48.92 6.76997 48.88 6.76997C48.87 6.76997 48.86 6.76997 48.85 6.76997C48.77 6.76997 48.69 6.76997 48.61 6.76997C48.61 6.73997 48.62 6.71997 48.63 6.69997C48.49 6.63997 48.35 6.58997 48.22 6.52997C48.22 6.50997 48.23 6.47997 48.24 6.45997C47.4 6.30997 46.56 6.15997 45.71 6.00997C45.71 5.98997 45.72 5.95997 45.73 5.93997C45.11 5.81997 44.49 5.69997 43.86 5.56997C43.67 5.50997 43.48 5.44997 43.28 5.38997C43.28 5.40997 43.28 5.42997 43.27 5.44997C43.21 5.43997 43.15 5.41997 43.09 5.40997C43.09 5.38997 43.09 5.35997 43.11 5.33997C43 5.28997 42.97 5.37997 42.95 5.36997C42.72 5.28997 41.25 4.96997 41.17 4.94997C41.17 4.89997 39.33 4.61997 39.04 4.44997C39.04 4.42997 38.87 4.33997 38.78 4.30997C38.78 4.28997 37.94 4.03997 37.52 3.93997C37.52 3.91997 37.52 3.88997 37.54 3.86997C37.38 3.80997 37.22 3.73997 37.06 3.67997C37.07 3.62997 36.78 3.58997 36.77 3.60997C36.67 3.60997 36.81 3.56997 36.72 3.51997C36.62 3.49997 36.53 3.46997 36.43 3.44997C36.43 3.42997 36.44 3.39997 36.45 3.37997C36.36 3.33997 36.28 3.28997 36.18 3.23997C36.18 3.21997 36.19 3.18997 36.2 3.16997C36.1 3.14997 36.01 3.12997 35.91 3.10997C35.91 3.12997 35.91 3.15997 35.89 3.17997C35.65 3.11997 35.42 3.06997 35.18 3.00997C35.18 2.98997 35.19 2.95997 35.2 2.93997C34.88 2.77997 34.8 3.09997 34.45 2.91997C34.45 2.89997 34.46 2.86997 34.47 2.84997C34.26 2.79997 34.04 2.74997 33.83 2.69997C33.83 2.67997 33.84 2.64997 33.85 2.62997C33.71 2.56997 33.58 2.51997 33.44 2.45997C33.44 2.48997 33.43 2.50997 33.42 2.52997C33.27 2.54997 33.11 2.54997 32.96 2.56997C32.96 2.58997 32.95 2.61997 32.94 2.63997C32.51 2.53997 32.09 2.43997 31.66 2.33997C31.66 2.31997 31.67 2.28997 31.68 2.26997C31.64 2.25997 31.59 2.24997 31.54 2.23997C31.54 2.21997 31.55 2.18997 31.56 2.16997C31.23 1.95997 30.74 2.09997 30.57 1.92997C30.39 1.89997 30.21 2.06997 29.96 1.92997C29.96 1.90997 29.97 1.87997 29.98 1.85997C29.84 1.82997 27.94 1.22997 27.87 1.28997C27.73 1.25997 27.59 1.21997 27.44 1.18997C27.44 1.20997 27.44 1.22997 27.42 1.25997C27.11 1.20997 26.79 1.15997 26.48 1.10997C26.48 1.07997 26.5 1.05997 26.5 1.03997C26.29 0.989972 26.07 0.939972 25.86 0.889972C25.86 0.869972 25.87 0.839972 25.88 0.819972C25.81 0.799972 25.74 0.779972 25.67 0.769972C25.67 0.739972 25.68 0.719972 25.69 0.699972C25.53 0.639972 25.39 0.769972 25.15 0.729972C24.82 0.659972 24.79 0.559972 24.62 0.449972C24.38 0.399972 24.15 0.339972 23.91 0.279972C23.91 0.309972 23.89 0.329972 23.89 0.349972C23.82 0.329972 23.75 0.319972 23.68 0.299972C23.68 0.319972 23.68 0.349972 23.66 0.369972C23.6 0.329972 23.53 0.289972 23.46 0.249972C23.46 0.229972 23.47 0.199972 23.48 0.179972C23.43 0.169972 23.39 0.159972 23.34 0.139972C23.34 0.119972 23.35 0.0899723 23.36 0.0699723C23.26 0.0699723 23.16 0.0699723 23.06 0.0699723C23.06 0.0999723 23.04 0.119972 23.04 0.139972C22.89 0.139972 22.79 -0.110028 22.56 -0.0500277C22.56 -0.0300277 22.55 -2.7705e-05 22.54 0.0199723C22.49 0.0099723 22.45 -2.77013e-05 22.4 -0.0100277C22.4 0.0199723 22.39 0.0399723 22.38 0.0599723C22.17 0.159972 21.97 0.259972 21.77 0.359972C21.71 0.589972 21.65 0.829972 21.58 1.06997C21.61 1.06997 21.63 1.06997 21.65 1.08997C21.6 1.37997 21.55 1.65997 21.5 1.94997C21.48 1.94997 21.46 1.93997 21.43 1.92997C21.4 2.04997 21.37 2.15997 21.34 2.27997C21.36 2.27997 21.38 2.27997 21.41 2.28997C21.38 2.40997 21.36 2.52997 21.32 2.63997C21.29 2.63997 21.27 2.63997 21.25 2.61997C21.22 2.73997 21.19 2.85997 21.16 2.97997C21.18 2.97997 21.2 2.98997 21.23 2.99997C21.22 3.04997 21.2 3.08997 21.19 3.13997C21.23 3.17997 21.27 3.20997 21.31 3.23997C21.21 3.61997 21.11 3.98997 21.01 4.36997C21.01 4.36997 21.06 4.38997 21.05 4.52997C20.65 4.70997 20.69 6.53997 20.83 6.49997C20.87 6.50997 20.93 6.51997 20.97 6.52997C21 6.48997 21.04 6.44997 21.08 6.40997C21.36 6.47997 21.65 6.53997 21.93 6.60997C22.18 6.69997 22.19 6.89997 22.35 7.00997C22.65 7.10997 22.96 7.19997 23.26 7.29997C23.26 7.31997 23.24 7.34997 23.24 7.36997C23.36 7.36997 23.49 7.36997 23.62 7.37997C23.62 7.35997 23.62 7.32997 23.63 7.30997C23.92 7.37997 24.2 7.43997 24.49 7.50997C24.49 7.52997 24.47 7.55997 24.47 7.57997C24.8 7.65997 25.13 7.73997 25.46 7.81997C25.46 7.81997 25.55 7.72997 25.69 7.79997C25.69 7.81997 25.68 7.84997 25.67 7.86997C25.99 8.03997 26.25 7.92997 26.41 8.19997C26.43 8.19997 26.46 8.20997 26.48 8.21997C26.45 8.33997 26.42 8.45997 26.39 8.56997C26.41 8.56997 26.44 8.57997 26.46 8.58997C26.44 8.65997 26.42 8.72997 26.4 8.79997C26.42 8.79997 26.45 8.80997 26.47 8.81997C26.3 9.35997 26.14 9.88997 25.97 10.43C25.92 11.17 25.29 12.83 25.32 13.72C25.34 14.16 24.89 14.56 24.9 14.75C24.92 14.75 24.94 14.75 24.97 14.77C24.96 14.82 24.94 14.86 24.93 14.91C24.95 14.91 24.97 14.92 24.99 14.93C24.88 15.25 24.77 15.58 24.66 15.9C24.69 15.9 24.71 15.91 24.73 15.92C24.64 16.27 24.54 16.63 24.45 16.98C24.47 16.98 24.49 16.99 24.52 17C24.47 17.29 24.42 17.58 24.37 17.86C24.26 18.36 24.15 18.86 24.04 19.36C24.02 19.36 24 19.36 23.97 19.34C23.88 19.43 23.86 19.5 23.81 19.68C23.64 20.24 23.55 20.9 23.29 21.06C23.24 21.09 22.32 21.09 22.24 21.04C22.24 21.02 22.25 20.99 22.26 20.97C22.18 20.89 22.09 20.77 21.94 20.74C21.94 20.76 21.93 20.79 21.92 20.81C21.85 20.79 21.78 20.78 21.71 20.76C21.71 20.74 21.72 20.71 21.73 20.69C21.45 20.62 21.16 20.55 20.88 20.49C20.88 20.51 20.87 20.54 20.86 20.56C20.81 20.56 20.77 20.54 20.72 20.53C20.72 20.55 20.72 20.58 20.7 20.6C20.3 20.48 19.91 20.36 19.51 20.25C19.51 20.28 19.5 20.3 19.49 20.32C19.28 20.25 19.08 20.17 18.87 20.1C18.87 20.12 18.85 20.15 18.85 20.17C18.71 20.14 18.56 20.1 18.42 20.07C18.42 20.09 18.41 20.12 18.4 20.14C18.3 20.14 18.44 20.1 18.35 20.05C18.12 19.93 17.87 19.98 17.69 19.97C17.6 20.05 17.5 20.13 17.4 20.2C17.38 20.2 17.36 20.19 17.33 20.18C17.22 20.28 17.29 20.34 17.11 20.43C17.07 20.6 17.02 20.76 16.98 20.92C16.94 21.01 16.91 20.87 16.89 20.97C16.92 20.97 16.94 20.98 16.96 20.99C16.92 21.15 16.87 21.32 16.83 21.48C16.85 21.48 16.87 21.49 16.9 21.5C16.88 21.57 16.86 21.64 16.85 21.71C16.87 21.71 16.9 21.71 16.92 21.73C16.82 22.18 16.73 22.63 16.63 23.09C16.61 23.09 16.58 23.08 16.56 23.07C16.39 23.39 16.68 23.57 16.5 23.88C16.48 23.88 16.45 23.87 16.43 23.86C16.41 23.93 16.39 24 16.38 24.07C16.36 24.07 16.33 24.06 16.31 24.05C16.24 24.33 16.16 24.61 16.09 24.9C16.06 24.9 16.04 24.89 16.02 24.88C15.95 25.04 15.89 25.2 15.81 25.36C15.92 25.52 15.83 25.54 15.88 25.67C16.02 25.88 16.17 26.09 16.32 26.3C16.47 26.3 16.48 26.26 16.48 26.26C16.6 26.29 16.72 26.31 16.84 26.34C16.84 26.32 16.84 26.29 16.86 26.27C16.91 26.28 16.96 26.29 17 26.3C17 26.28 17.02 26.26 17.02 26.23C17.35 26.2 17.61 26.47 17.76 26.56C18.05 26.62 18.33 26.69 18.62 26.76C18.62 26.78 18.61 26.81 18.6 26.83C18.97 26.94 19.34 27.06 19.71 27.17C19.71 27.19 19.7 27.22 19.69 27.24C19.73 27.24 19.79 27.26 19.83 27.27C19.83 27.29 19.83 27.32 19.81 27.34C20.12 27.51 20.36 27.07 20.66 27.24C20.66 27.26 20.65 27.28 20.64 27.31C20.69 27.32 20.73 27.33 20.78 27.34C20.81 27.42 20.84 27.5 20.87 27.59C21.05 27.72 21.35 27.59 21.46 27.65C21.46 27.68 21.45 27.7 21.44 27.72C21.49 27.73 21.54 27.74 21.58 27.75C21.58 27.77 21.57 27.8 21.56 27.82C21.61 27.83 21.66 27.84 21.71 27.85C21.7 27.87 21.69 27.9 21.69 27.92C21.75 27.96 21.82 28 21.88 28.04C21.87 28.19 21.85 28.33 21.84 28.48C21.86 28.48 21.89 28.49 21.91 28.5C21.87 28.64 21.84 28.78 21.8 28.92C21.83 28.92 21.85 28.92 21.88 28.94C21.86 29.11 21.64 29.29 21.64 29.56C21.67 29.56 21.69 29.57 21.71 29.58C21.67 29.74 21.63 29.91 21.58 30.07C21.58 30.09 21.48 30.07 21.47 30.2C21.49 30.2 21.52 30.21 21.54 30.22C21.44 30.62 21.33 31.02 21.23 31.42C21.25 31.42 21.27 31.42 21.29 31.44C21.26 31.54 21.25 31.63 21.22 31.72C21.24 31.72 21.27 31.73 21.29 31.73C21.21 32.01 21.14 32.3 21.07 32.58C21.05 32.58 21.02 32.57 21 32.56C20.95 32.67 20.89 32.78 20.83 32.9C20.86 32.9 20.88 32.9 20.9 32.92C20.89 32.97 20.88 33.01 20.86 33.06C20.9 33.09 20.94 33.13 20.98 33.16C21.01 33.37 20.78 33.7 20.74 33.78C20.71 33.97 20.69 34.17 20.66 34.36C20.63 34.36 20.62 34.35 20.59 34.34C20.55 34.58 20.51 34.82 20.47 35.06C20.42 35.15 20.39 35.01 20.38 35.11C20.4 35.11 20.43 35.12 20.45 35.13C20.43 35.22 20.4 35.32 20.38 35.42C20.4 35.42 20.42 35.42 20.45 35.44C20.44 35.48 20.43 35.53 20.41 35.58C20.44 35.58 20.46 35.59 20.48 35.6C20.44 35.74 20.41 35.88 20.37 36.02C20.34 36.02 20.32 36.01 20.3 36C20.17 36.24 20.27 36.58 20.26 36.74C20.25 36.89 20.05 36.97 20.06 37.22C20.08 37.22 20.1 37.23 20.13 37.24C20.04 37.57 19.96 37.9 19.87 38.23C19.9 38.23 19.92 38.24 19.94 38.25C19.91 38.37 19.88 38.48 19.85 38.6C19.87 39.14 19.58 39.65 19.44 40.15C19.36 40.46 19.28 40.76 19.2 41.07C19.22 41.07 19.24 41.08 19.27 41.09C19.25 41.18 19.22 41.28 19.2 41.37C19.18 41.37 19.15 41.36 19.13 41.35C19 41.58 18.94 42.06 18.98 42.21C18.94 42.27 18.89 42.34 18.85 42.4C18.66 42.37 18.6 42.35 18.48 42.39C18.48 42.41 18.47 42.44 18.46 42.46C18.14 42.51 18.06 42.23 17.86 42.17C17.71 42.17 17.56 42.15 17.41 42.14C17.41 42.16 17.41 42.19 17.39 42.21C17.09 42.09 16.8 41.97 16.51 41.85C16.07 41.77 15.64 41.7 15.21 41.62C15.19 41.62 15.16 41.7 15.05 41.66C15.05 41.64 15.06 41.61 15.07 41.59C14.95 41.56 14.84 41.53 14.72 41.51C14.72 41.49 14.72 41.46 14.74 41.44C14.47 41.4 14.21 41.36 13.94 41.33C13.94 41.31 13.95 41.28 13.96 41.26C13.91 41.26 13.86 41.24 13.82 41.23C13.82 41.21 13.84 41.18 13.84 41.16C13.68 41.12 13.51 41.08 13.35 41.04C13.28 41.1 13.21 41.16 13.15 41.22C13.1 41.21 13.06 41.2 13.01 41.19C12.78 41.29 12.46 41.69 12.34 42.01C12.37 42.01 12.39 42.02 12.41 42.03C12.4 42.17 12.39 42.32 12.37 42.47C12.39 42.47 12.42 42.48 12.44 42.49C12.42 42.56 12.4 42.63 12.38 42.7C12.4 42.7 12.43 42.71 12.45 42.72C12.33 43.17 12.21 43.61 12.09 44.06C12.11 44.06 12.14 44.06 12.16 44.08C12.12 44.24 12.07 44.41 12.03 44.57C12.03 44.58 11.93 44.57 11.92 44.69C11.94 44.69 11.96 44.7 11.99 44.71C11.98 44.86 11.96 45 11.95 45.15C11.92 45.15 11.9 45.15 11.88 45.13C11.88 45.18 11.86 45.22 11.84 45.27C11.81 45.27 11.79 45.26 11.77 45.25C11.75 45.52 11.73 45.79 11.7 46.06C11.58 46.78 11.28 47.14 11.11 47.72C11.25 47.83 11.4 47.92 11.55 48.05C11.55 48.07 11.54 48.1 11.53 48.12C11.64 48.17 11.75 48.22 11.86 48.28C11.86 48.33 11.88 48.38 11.89 48.44C11.94 48.45 11.99 48.46 12.03 48.48C12.03 48.5 12.01 48.53 12.01 48.55C12.22 48.6 12.44 48.65 12.65 48.7C12.65 48.75 12.67 48.81 12.68 48.86C13.04 48.92 13.4 48.98 13.77 49.04C13.77 49.06 13.76 49.09 13.75 49.11C13.8 49.12 13.85 49.13 13.89 49.14C13.89 49.16 13.89 49.19 13.87 49.21C14.01 49.24 14.16 49.27 14.3 49.31C14.3 49.29 14.31 49.27 14.32 49.24C14.44 49.27 14.56 49.29 14.68 49.32C14.68 49.35 14.67 49.37 14.66 49.39C14.78 49.44 14.79 49.35 14.82 49.35C15.06 49.35 15.33 49.51 15.44 49.57C15.63 49.62 15.82 49.66 16.01 49.71C16.01 49.73 16 49.76 15.99 49.78C16.04 49.78 16.09 49.8 16.13 49.81C16.13 49.83 16.12 49.86 16.11 49.88C16.34 49.94 16.58 49.99 16.82 50.05C16.82 50.13 16.83 50.2 16.83 50.28C16.97 50.56 16.53 50.98 16.53 51.41C16.55 51.41 16.58 51.42 16.6 51.43C16.53 51.67 16.48 51.9 16.41 52.14C16.39 52.14 16.37 52.13 16.34 52.12C16.32 52.21 16.29 52.31 16.26 52.4C16.26 52.79 16.11 53.58 15.9 54.04C15.87 54.03 15.85 54.02 15.83 54.02C15.82 54.05 15.85 54.19 15.83 54.32C15.75 54.6 15.68 54.88 15.61 55.17C15.61 55.17 15.54 55.15 15.5 55.29C15.47 55.48 15.45 55.68 15.42 55.87C15.4 55.87 15.37 55.86 15.35 55.85C15.32 55.97 15.29 56.09 15.26 56.2C15.24 56.2 15.21 56.19 15.19 56.19C15.18 56.23 15.16 56.28 15.15 56.33C15.13 56.33 15.11 56.32 15.08 56.31C15.04 56.48 14.99 56.64 14.95 56.81C14.93 56.81 14.91 56.81 14.88 56.79C14.85 56.89 14.83 56.98 14.81 57.07C14.79 57.07 14.76 57.06 14.74 57.05C14.69 57.15 14.82 57.51 14.74 57.65C14.69 57.66 14.63 57.67 14.58 57.69C14.55 57.83 14.51 57.97 14.47 58.11C14.5 58.11 14.52 58.11 14.54 58.13C14.54 58.45 14.29 58.64 14.21 58.8C14.2 58.94 14.18 59.09 14.17 59.24C14 59.55 13.56 60.89 13.54 61.34C13.57 61.34 13.59 61.35 13.61 61.36C13.56 61.45 13.51 61.54 13.46 61.62C13.4 61.81 13.41 62.2 13.42 62.36C13.33 62.71 13.23 63.07 13.13 63.42C13.16 63.42 13.18 63.43 13.2 63.44C13.13 63.7 13.06 63.96 12.99 64.21C12.96 64.21 12.94 64.21 12.92 64.19C12.87 64.48 12.82 64.77 12.77 65.06C12.57 65.11 12.49 65.14 12.16 65.06C11.81 65.24 11.64 64.8 11.33 64.79C11.33 64.82 11.31 64.84 11.31 64.86C11.14 64.82 10.98 64.78 10.81 64.74C10.81 64.76 10.8 64.78 10.8 64.81C10.68 64.76 10.57 64.71 10.46 64.66C10.46 64.68 10.45 64.71 10.44 64.73C10.39 64.71 10.34 64.71 10.3 64.69C10.3 64.72 10.29 64.74 10.28 64.77C10.18 64.74 10.09 64.72 9.99998 64.7C9.99998 64.72 9.98998 64.75 9.97998 64.77C9.95998 64.77 9.92998 64.77 9.90998 64.76C9.90998 64.74 9.91998 64.72 9.92998 64.69C9.56998 64.63 9.20998 64.57 8.83998 64.51C8.83998 64.49 8.84998 64.46 8.85998 64.44C8.69998 64.4 8.52998 64.36 8.35998 64.32C8.35998 64.3 8.36998 64.27 8.37998 64.25C8.33998 64.25 7.00998 63.98 6.95998 64.14C6.93998 64.14 6.90998 64.13 6.88998 64.13C6.86998 64.2 6.84998 64.27 6.83998 64.34C6.80998 64.34 6.78998 64.34 6.76998 64.32C6.75998 64.37 6.74998 64.42 6.73998 64.46C6.70998 64.46 6.68998 64.46 6.66998 64.45C6.66998 64.67 6.58998 65.18 6.57998 65.4C6.54998 65.4 6.52998 65.39 6.50998 65.39C6.41998 65.74 6.31998 66.09 6.22998 66.45C6.26998 66.66 6.31998 66.87 6.35998 67.08C6.32998 67.08 6.30998 67.07 6.28998 67.06C6.23998 67.15 6.18998 67.23 6.14998 67.32C6.11998 67.32 6.09998 67.32 6.07998 67.3C6.04998 67.52 6.00998 67.74 5.97998 67.95C5.94998 67.95 5.92998 67.95 5.90998 67.93C5.87998 68.05 5.83998 68.16 5.81998 68.28C5.78998 68.28 5.30998 70.21 5.27998 70.32C5.29998 70.32 5.32998 70.33 5.34998 70.34C5.30998 70.56 5.32998 71.16 5.34998 71.17C5.34998 71.26 5.18998 71.26 5.20998 71.43C5.22998 71.63 5.57998 72.16 5.81998 72.25C5.89998 72.37 6.41998 72.53 6.65998 72.52C6.65998 72.49 6.66998 72.47 6.67998 72.45C6.83998 72.51 6.99998 72.57 7.15998 72.64C7.24998 72.64 7.71998 72.6 7.83998 72.64C7.83998 72.66 7.82998 72.68 7.81998 72.71C8.18998 72.8 8.56998 72.89 8.95998 72.98C9.08998 73.04 9.22998 73.1 9.35998 73.15C9.35998 73.13 9.36998 73.1 9.37998 73.08C9.47998 73.08 9.57998 73.08 9.67998 73.08C9.67998 73.1 9.66998 73.12 9.65998 73.15C9.72998 73.17 9.79998 73.18 9.86998 73.2C9.86998 73.22 9.86998 73.24 9.84998 73.27C10.02 73.28 10.19 73.3 10.37 73.31C10.42 73.42 10.46 73.53 10.51 73.64C10.8 73.68 11.09 73.73 11.38 73.77C11.38 73.82 11.4 73.88 11.41 73.92C11.55 73.98 11.68 74.04 11.82 74.09C11.97 73.98 12.19 73.95 12.34 73.84C12.43 73.89 12.52 73.93 12.6 73.98C12.6 74 12.59 74.02 12.58 74.05C12.72 74.08 12.86 74.11 13.01 74.15C13.01 74.17 13.01 74.2 12.99 74.22C13.32 74.3 13.65 74.38 13.99 74.45C14.07 74.49 14.14 74.62 14.32 74.6C14.32 74.58 14.33 74.55 14.34 74.53C14.39 74.53 14.43 74.55 14.48 74.56C14.48 74.54 14.48 74.51 14.5 74.49C14.57 74.5 14.64 74.52 14.71 74.54C14.71 74.51 14.72 74.5 14.73 74.47C14.86 74.52 15 74.58 15.14 74.64C15.14 74.61 15.14 74.59 15.16 74.57C15.21 74.57 15.26 74.59 15.3 74.6C15.3 74.58 15.31 74.55 15.32 74.53C15.66 74.56 16.01 74.59 16.35 74.62C16.35 74.65 16.34 74.67 16.33 74.69C16.4 74.71 16.47 74.72 16.54 74.74C16.54 74.76 16.53 74.79 16.52 74.81C16.76 74.84 17.01 74.87 17.25 74.91C17.25 74.93 17.24 74.95 17.23 74.98C17.37 75.01 17.52 75.05 17.66 75.08C17.66 75.1 17.65 75.13 17.64 75.15C17.69 75.15 17.73 75.17 17.78 75.18C17.78 75.2 17.77 75.22 17.76 75.25C18 75.28 18.25 75.32 18.49 75.35C18.52 75.43 18.55 75.51 18.57 75.59C18.69 75.62 18.81 75.65 18.93 75.67C18.96 75.63 19 75.59 19.04 75.55C19.23 75.52 19.36 75.7 19.45 75.72C19.45 75.7 19.45 75.67 19.47 75.65C19.54 75.67 19.61 75.69 19.68 75.7C19.68 75.67 19.69 75.65 19.7 75.63C19.83 75.63 19.81 75.73 19.82 75.73C19.92 75.75 20.01 75.77 20.11 75.8C20.11 75.77 20.12 75.75 20.13 75.73C20.31 75.73 20.4 75.82 20.46 75.89C20.46 75.91 20.46 75.94 20.44 75.96C20.7 76.15 21.19 76.04 21.38 76.11C21.38 76.13 21.37 76.15 21.36 76.18C21.6 76.21 21.84 76.25 22.09 76.28C22.19 76.34 22.62 76.58 22.85 76.54C22.91 76.48 22.98 76.42 23.05 76.36C23.4 76.3 23.58 76.76 23.85 76.78C23.85 76.75 23.86 76.73 23.87 76.71C23.94 76.71 24.01 76.74 24.08 76.76C24.08 76.74 24.09 76.71 24.1 76.69C24.38 76.68 24.5 76.9 24.63 76.97C24.92 77.01 25.21 77.06 25.5 77.1C25.64 77.16 25.99 77.39 26.26 77.35C26.26 77.32 26.27 77.31 26.28 77.28C26.33 77.28 26.37 77.3 26.42 77.32C26.45 77.28 26.48 77.25 26.5 77.22C26.5 77.22 26.5 77.23 26.5 77.24C26.57 77.26 26.64 77.27 26.71 77.29C26.71 77.31 26.7 77.34 26.69 77.36C26.83 77.43 26.92 77.34 26.92 77.34C27.09 77.38 27.26 77.42 27.43 77.46C27.43 77.46 27.43 77.46 27.43 77.48C27.47 77.5 27.49 77.48 27.51 77.48C27.72 77.53 27.92 77.58 28.13 77.62C28.32 77.69 28.5 77.76 28.68 77.83C28.71 77.79 28.74 77.76 28.78 77.72C28.81 77.72 28.84 77.74 28.87 77.74C28.87 77.74 28.87 77.72 28.87 77.71C29.15 77.73 29.29 78.01 29.46 78C29.46 77.99 29.48 77.97 29.49 77.96C29.57 78.01 29.64 78.06 29.68 78.08C29.96 78.12 30.25 78.16 30.54 78.21C30.54 78.21 30.54 78.21 30.55 78.21C30.55 78.24 30.54 78.26 30.53 78.28C30.72 78.39 30.87 78.36 31.01 78.47C31.01 78.5 31 78.52 30.99 78.54C31.03 78.54 31.08 78.56 31.13 78.57C31.13 78.58 31.21 78.57 31.33 78.55C31.33 78.57 31.33 78.58 31.33 78.6C31.38 78.61 31.42 78.63 31.47 78.63C31.47 78.66 31.46 78.68 31.45 78.7C31.71 78.88 32.82 79.01 33.03 79C33.4 79.12 33.77 79.23 34.15 79.34C34.15 79.31 34.16 79.29 34.17 79.27C34.22 79.28 34.27 79.29 34.31 79.3C34.31 79.28 34.32 79.26 34.33 79.23C34.62 79.3 34.9 79.36 35.19 79.43C35.19 79.46 35.18 79.48 35.17 79.5C35.26 79.57 35.53 79.71 35.72 79.71C35.72 79.68 35.72 79.67 35.74 79.64C35.84 79.66 35.93 79.69 36.03 79.71C36.03 79.69 36.05 79.66 36.05 79.64C36.14 79.69 36.23 79.74 36.32 79.78C36.32 79.8 36.3 79.83 36.3 79.85C36.57 79.89 36.83 79.93 37.1 79.97C37.16 80.11 38.85 80.08 38.84 79.93C38.82 79.93 38.79 79.91 38.77 79.91C38.88 79.58 38.99 79.26 39.11 78.94C39.09 78.94 39.06 78.93 39.04 78.92C39.05 78.78 39.07 78.63 39.08 78.49C39.04 78.45 39 78.41 38.96 78.38C38.99 78.26 39.02 78.15 39.05 78.03C39.08 78.03 39.1 78.04 39.12 78.04C39.22 77.66 39.33 77.29 39.42 76.91C39.45 76.91 39.47 76.92 39.49 76.93C39.59 76.57 39.68 76.22 39.77 75.87C39.75 75.87 39.72 75.85 39.7 75.85C39.84 75.21 39.99 74.57 40.13 73.93C40.16 73.93 40.18 73.94 40.2 73.94C40.22 73.87 40.24 73.81 40.25 73.73C40.28 73.73 40.3 73.75 40.32 73.75C40.34 73.6 40.35 73.46 40.36 73.31C40.33 73.31 40.31 73.31 40.29 73.29C40.34 73.18 40.4 73.06 40.45 72.95C40.51 72.74 40.39 72.57 40.42 72.49C40.44 72.49 40.47 72.5 40.49 72.51C40.51 72.44 40.53 72.36 40.54 72.29C40.57 72.29 40.59 72.3 40.61 72.31C40.84 71.52 41.08 70.72 41.32 69.93C41.32 69.81 41.3 69.48 41.42 69.28C41.44 69.28 41.47 69.29 41.49 69.3C41.53 69.06 41.57 68.81 41.61 68.57C41.64 68.57 41.66 68.58 41.68 68.59C41.68 68.56 41.69 68.54 41.7 68.52C41.68 68.52 41.65 68.51 41.63 68.5C41.7 68.34 41.77 68.18 41.83 68.02C41.88 67.83 41.93 67.64 41.98 67.45C42 67.45 42.03 67.45 42.05 67.47C42.07 67.4 42.09 67.33 42.1 67.26C42.13 67.26 42.15 67.27 42.17 67.28C42.25 67 42.32 66.71 42.39 66.43C42.41 66.43 42.44 66.44 42.46 66.45C42.5 66.21 42.54 65.97 42.58 65.73C42.63 65.72 42.69 65.7 42.74 65.69C42.81 65.41 42.88 65.12 42.96 64.84C43 64.75 43 64.87 43.05 64.79C43.14 64.36 43.22 63.93 43.32 63.51C43.29 63.51 43.27 63.5 43.25 63.49C43.35 63.19 43.46 62.89 43.56 62.59C43.54 62.59 43.51 62.58 43.49 62.57C43.49 62.24 43.72 62.19 43.8 61.97C44 61.43 44.22 60.58 44.22 60.12C44.32 59.72 44.43 59.32 44.54 58.92C44.51 58.92 44.49 58.91 44.47 58.9C44.59 58.45 44.71 58.01 44.82 57.56C44.85 57.56 44.87 57.57 44.89 57.58C44.9 57.53 44.92 57.49 44.93 57.44C44.95 57.44 44.98 57.45 45 57.46C45.03 57.36 45.05 57.27 45.07 57.18C45.05 57.18 45.02 57.17 45 57.16C45.1 56.81 45.19 56.45 45.28 56.1C45.31 56.1 45.33 56.11 45.35 56.12L45.37 56.21Z" fill="#B7282E"/>
</g>
<defs>
<clipPath id="clip0_53_2">
<rect width="56.01" height="95.76" fill="white"/>
</clipPath>
</defs>
</svg>
