<svg width="98" height="98" viewBox="0 0 98 98" fill="none" xmlns="http://www.w3.org/2000/svg">
<g clip-path="url(#clip0_69_190)">
<path d="M17.0871 9.89029L25.3199 6.44282L28.6353 5.05635L31.2393 3.96657C33.888 2.85602 36.9414 3.99786 38.2149 6.57247L45.9355 22.1951C47.2112 24.7775 46.2519 27.9065 43.7466 29.331L40.9301 30.9313L37.7994 32.7122L37.0099 33.1608C36.2337 33.6017 35.9734 34.5947 36.4349 35.3589C38.0124 37.9711 41.6573 43.9258 45.9724 50.4323C50.2884 56.94 54.3561 62.6146 56.1491 65.0842C56.6736 65.8068 57.6897 65.9531 58.398 65.4094L59.0528 64.9066L61.9055 62.7161L64.5453 60.6914C66.8322 58.9376 70.0879 59.2713 71.9721 61.4532L83.3604 74.6432C85.2353 76.8158 85.0994 80.0729 83.0473 82.0832L80.9675 84.1213L78.3992 86.634L72.0847 92.8162C70.5183 94.3475 68.2506 94.9098 66.1494 94.2938C57.6711 91.8073 41.2552 80.2065 28.982 61.7005C16.7085 43.1947 12.4093 23.5611 13.4155 14.7812C13.6653 12.6058 15.0655 10.7353 17.0871 9.89029Z" fill="#3B5C7D"/>
<path d="M61.9056 62.7161C62.9158 63.8587 64.1779 65.2838 65.5846 66.8713C69.1191 70.8641 73.5693 75.8804 77.2245 79.9623C78.6205 81.52 79.9012 82.945 80.9675 84.1213L78.3993 86.6341C77.6764 85.8363 76.8554 84.9281 75.9679 83.9379C73.5353 81.2304 70.5875 77.9226 67.7385 74.7126C64.3679 70.9159 61.1316 67.2611 59.053 64.9065L61.9056 62.7161Z" fill="#233950"/>
<path d="M25.3199 6.44306L28.6353 5.05659C30.9924 9.9656 35.208 18.7722 38.4084 25.5469C39.3668 27.5766 40.2309 29.4225 40.9302 30.9314L37.7995 32.7123C37.3784 31.8034 36.888 30.7532 36.3486 29.6058C34.9452 26.6126 33.2061 22.9464 31.4686 19.3009C29.1484 14.4292 26.8324 9.59148 25.3199 6.44306Z" fill="#233950"/>
</g>
<defs>
<clipPath id="clip0_69_190">
<rect width="82.5644" height="82.5644" fill="white" transform="translate(16.3859) rotate(11.447)"/>
</clipPath>
</defs>
</svg>
